<?xml version="1.0" encoding="utf-8"?>
<!-- Generator: Adobe Illustrator 27.2.0, SVG Export Plug-In . SVG Version: 6.00 Build 0)  -->
<svg version="1.1" xmlns="http://www.w3.org/2000/svg" xmlns:xlink="http://www.w3.org/1999/xlink" x="0px" y="0px"
	 viewBox="0 0 288 112.3" style="enable-background:new 0 0 288 112.3;" xml:space="preserve">
<style type="text/css">
	.st0{fill:#FDB913;}
	.st1{fill:#4E917A;}
	.st2{display:none;}
	.st3{display:inline;}
	.st4{fill:#F36D32;}
	.st5{fill:#F36D34;}
</style>
<g id="White_x2F_Color">
</g>
<g id="White">
</g>
<g id="B_x26_W">
</g>
<g id="Color">
	<g>
		<path class="st0" d="M10.3,72.3c-1.2,0-2.1,0.9-2.1,2.1c0,1.2,0.9,2.1,2.1,2.1h113.2c1,6.1,6.2,10.8,12.6,10.8
			c7,0,12.8-5.7,12.8-12.8c0-7.1-5.7-12.8-12.8-12.8c-6.3,0-11.5,4.6-12.6,10.6L10.3,72.3"/>
		<g>
			<path class="st1" d="M14.4,8.7H8.6v38.9h5.8V31.9h1.9c8.4,0,13.2-4.2,13.2-11.6C29.4,12.3,24.8,8.7,14.4,8.7z M23.9,20.1
				c0,4.4-2.6,6.2-8.8,6.2h-0.8V14.2h0.5C21.2,14.2,23.9,16,23.9,20.1z"/>
			<polygon class="st1" points="53.2,8.7 47.4,8.7 47.4,47.6 64.1,47.6 64.1,42 53.2,42 			"/>
			<path class="st1" d="M78.6,47.6h6.2l4.1-9.4h15.6l4.1,9.4h6.2L96.7,6.1L78.6,47.6z M102,32.6H91.3l5.4-12.9L102,32.6z"/>
			<polygon class="st1" points="121.1,14.3 132.9,14.3 132.9,47.6 138.6,47.6 138.6,14.3 150.4,14.3 150.4,8.7 121.1,8.7 			"/>
			<polygon class="st1" points="165.9,47.6 186.4,47.6 186.4,42 171.7,42 171.7,29.1 186,29.1 186,23.5 171.7,23.5 171.7,14.3 
				186.4,14.3 186.4,8.7 165.9,8.7 			"/>
			<path class="st1" d="M201.4,47.6h6.2l4.1-9.4h15.5l4.1,9.4h6.2L219.4,6.1L201.4,47.6z M219.4,19.7l5.4,12.9h-10.8L219.4,19.7z"/>
			<path class="st1" d="M272.7,8.7v22c0,7.5-2.6,11.2-8,11.2c-5.4,0-8-3.7-8-11.2v-22H251v23.6c0,9.1,5.5,15.3,13.7,15.3
				c8.2,0,13.7-6.1,13.7-15.3V8.7H272.7z"/>
		</g>
		<path class="st1" d="M156.6,76.5c-1.1,10.5-9.9,18.6-20.6,18.6c-3.3,0-6.5-0.7-9.3-2.1l-0.3-0.2c-1-0.6-1.4-1.8-0.9-2.9
			c0.5-1,1.8-1.4,2.9-0.9l0.2,0.1c2.3,1.2,4.8,1.8,7.6,1.8c9.1,0,16.6-7.4,16.6-16.6c0-9.1-7.4-16.6-16.6-16.6
			c-2.8,0-5.4,0.7-7.7,1.9l-0.2,0.1c-1.1,0.5-2.3,0.1-2.8-1c-0.5-1.1-0.1-2.3,1-2.8l0.2-0.1c2.8-1.5,6.1-2.3,9.5-2.3
			c10.7,0,19.6,8.2,20.6,18.6h120.2c1.2,0,2.1,0.9,2.1,2.1c0,1.2-0.9,2.1-2.1,2.1H156.6"/>
	</g>
</g>
<g id="Layer_5" class="st2">
	<g class="st3">
		<g>
			<g>
				<path class="st4" d="M170.7,87.2h7l-1.1,4.1c-0.2,0.6-0.5,1-0.9,1.4c-0.5,0.3-1,0.5-1.6,0.5h-3.2c-0.7,0-1.4,0.2-2,0.6
					c-0.6,0.4-1,1-1.2,1.8c-0.1,0.6-0.2,1.1,0,1.6c0.1,0.5,0.3,0.9,0.6,1.3c0.3,0.4,0.7,0.7,1.1,0.9c0.5,0.2,0.9,0.3,1.5,0.3h2
					c0.4,0,0.7,0.1,0.9,0.4c0.2,0.3,0.3,0.6,0.2,1l-1.2,4.6h-2.2c-1.5,0-2.8-0.3-4.1-1c-1.2-0.6-2.3-1.5-3.1-2.6
					c-0.8-1.1-1.4-2.3-1.7-3.6c-0.3-1.4-0.3-2.8,0.1-4.2l0.1-0.5c0.3-1,0.7-1.9,1.2-2.7c0.6-0.8,1.2-1.5,2-2.1s1.6-1,2.6-1.4
					C168.7,87.4,169.7,87.2,170.7,87.2z"/>
				<path class="st4" d="M174.2,105.7l6.1-22.7c0.2-0.6,0.5-1,0.9-1.4c0.5-0.3,1-0.5,1.6-0.5h6.4c1.5,0,2.8,0.3,4.1,1
					c1.2,0.6,2.3,1.5,3.1,2.6c0.8,1.1,1.4,2.3,1.7,3.6c0.3,1.4,0.3,2.8-0.1,4.2l-0.1,0.5c-0.3,1-0.7,1.9-1.2,2.7
					c-0.6,0.8-1.2,1.5-2,2.1c-0.8,0.6-1.6,1.1-2.6,1.4c-0.9,0.3-1.9,0.5-3,0.5h-5.6l1.1-4.2c0.2-0.6,0.5-1,0.9-1.4
					c0.5-0.3,1-0.5,1.6-0.5h1.8c0.7,0,1.4-0.2,2-0.7c0.6-0.5,1-1,1.2-1.8c0.1-0.5,0.2-1,0-1.5c-0.1-0.5-0.3-0.9-0.6-1.3
					c-0.3-0.4-0.7-0.7-1.1-0.9c-0.5-0.2-0.9-0.4-1.5-0.4h-3.4l-4.5,16.7c-0.2,0.6-0.5,1-0.9,1.4c-0.5,0.3-1,0.5-1.5,0.5H174.2z"/>
				<path class="st4" d="M212.6,93.6l0.1-0.3c0-0.2,0-0.3-0.1-0.4c-0.1-0.1-0.2-0.2-0.4-0.2h-10c-0.4,0-0.8-0.1-1.2-0.3
					c-0.3-0.2-0.6-0.4-0.9-0.7c-0.2-0.3-0.4-0.6-0.5-1c-0.1-0.4-0.1-0.8,0-1.2l0.6-2.3h13.5c0.8,0,1.6,0.2,2.3,0.6
					c0.7,0.4,1.3,0.9,1.7,1.4c0.5,0.6,0.8,1.3,1,2c0.2,0.8,0.2,1.6,0,2.4l-2.4,9c-0.2,0.9-0.7,1.7-1.5,2.2c-0.7,0.6-1.6,0.9-2.6,0.9
					l-10,0c-0.9,0-1.7-0.2-2.4-0.6c-0.7-0.4-1.3-0.9-1.8-1.5c-0.5-0.6-0.8-1.3-1-2.2c-0.2-0.8-0.2-1.6,0.1-2.5l0.1-0.5
					c0.1-0.6,0.4-1.1,0.7-1.6c0.3-0.5,0.7-0.9,1.2-1.3c0.5-0.3,1-0.6,1.5-0.8c0.6-0.2,1.1-0.3,1.8-0.3h8.4l-0.6,2.3
					c-0.2,0.6-0.5,1-0.9,1.4c-0.5,0.3-1,0.5-1.5,0.5h-3.8c-0.3,0-0.6,0.2-0.7,0.5c-0.1,0.2,0,0.4,0.1,0.6c0.1,0.2,0.3,0.3,0.6,0.3
					h6.1c0.2,0,0.4-0.1,0.6-0.2c0.2-0.1,0.3-0.3,0.3-0.5l0.1-0.2L212.6,93.6z"/>
				<path class="st4" d="M230.5,87.2c1.5,0,2.9,0.3,4.1,1s2.3,1.5,3.1,2.6c0.8,1.1,1.4,2.3,1.7,3.7c0.3,1.4,0.3,2.8-0.1,4.2
					l-1.5,5.8c-0.1,0.4-0.3,0.7-0.7,1c-0.3,0.2-0.7,0.4-1.1,0.4h-3.3c-0.4,0-0.7-0.1-0.9-0.4c-0.2-0.3-0.3-0.6-0.2-1l1.8-7
					c0.1-0.5,0.2-1,0-1.5c-0.1-0.5-0.3-0.9-0.6-1.3c-0.3-0.4-0.7-0.7-1.1-0.9c-0.5-0.2-0.9-0.4-1.5-0.4h-3.4l-3,11.2
					c-0.1,0.4-0.3,0.7-0.7,1s-0.7,0.4-1.2,0.4h-3.3c-0.4,0-0.7-0.1-0.9-0.4c-0.2-0.3-0.3-0.6-0.2-1l4.6-17.1H230.5z"/>
				<path class="st4" d="M248.6,93.1c-0.2,0.2-0.4,0.4-0.5,0.8l-1.4,5.2c-0.1,0.3,0,0.6,0.2,0.8c0.2,0.2,0.4,0.4,0.7,0.4h12.7
					l-1,3.7c-0.2,0.6-0.5,1-0.9,1.4c-0.5,0.3-1,0.5-1.5,0.5h-11.6c-0.8,0-1.6-0.2-2.3-0.5c-0.7-0.4-1.3-0.8-1.7-1.4
					c-0.5-0.6-0.8-1.3-1-2.1c-0.2-0.8-0.1-1.6,0.1-2.4l1.9-7c0.2-0.8,0.5-1.5,1-2.1c0.4-0.6,0.9-1.2,1.5-1.6c0.6-0.5,1.2-0.8,2-1.1
					c0.7-0.3,1.5-0.4,2.3-0.4h8.2c0.8,0,1.6,0.2,2.3,0.6c0.7,0.4,1.3,0.9,1.7,1.4c0.5,0.6,0.8,1.3,0.9,2.1c0.2,0.8,0.1,1.6-0.1,2.4
					l-0.6,2.1c-0.2,0.9-0.7,1.7-1.5,2.2c-0.7,0.6-1.6,0.8-2.5,0.8h-9.3l0.6-2.3c0.1-0.6,0.4-1,0.9-1.4c0.5-0.3,1-0.5,1.6-0.5h3.8
					c0.3,0,0.6-0.2,0.7-0.5l0.1-0.5c0.1-0.2,0-0.4-0.1-0.6c-0.1-0.2-0.3-0.3-0.6-0.3h-5.7C249.1,92.8,248.9,92.9,248.6,93.1z"/>
				<path class="st4" d="M260.3,105.7l6.2-23.2c0.1-0.4,0.3-0.7,0.7-1c0.3-0.3,0.7-0.4,1.2-0.4h3.3c0.4,0,0.7,0.1,0.9,0.4
					c0.2,0.3,0.3,0.6,0.2,1l-4.6,17.1c-0.2,0.9-0.6,1.7-1.1,2.5c-0.5,0.7-1.1,1.4-1.8,1.9c-0.7,0.5-1.5,0.9-2.3,1.2
					C262.1,105.6,261.2,105.7,260.3,105.7z"/>
			</g>
		</g>
		<g>
			<path class="st4" d="M273.8,83.3c0-0.4,0.1-0.7,0.3-1.1c0.2-0.3,0.4-0.6,0.8-0.8c0.3-0.2,0.7-0.3,1.1-0.3c0.4,0,0.7,0.1,1.1,0.3
				c0.3,0.2,0.6,0.4,0.8,0.8c0.2,0.3,0.3,0.7,0.3,1.1c0,0.4-0.1,0.7-0.3,1c-0.2,0.3-0.4,0.6-0.8,0.8c-0.3,0.2-0.7,0.3-1.1,0.3
				c-0.4,0-0.7-0.1-1.1-0.3c-0.3-0.2-0.6-0.5-0.8-0.8C273.9,84,273.8,83.7,273.8,83.3z M274.1,83.3c0,0.3,0.1,0.6,0.2,0.9
				c0.2,0.3,0.4,0.5,0.7,0.7c0.3,0.2,0.6,0.2,0.9,0.2c0.3,0,0.6-0.1,0.9-0.2c0.3-0.2,0.5-0.4,0.7-0.7c0.2-0.3,0.2-0.6,0.2-0.9
				c0-0.3-0.1-0.6-0.2-0.9c-0.2-0.3-0.4-0.5-0.7-0.7c-0.3-0.2-0.6-0.2-0.9-0.2c-0.3,0-0.6,0.1-0.9,0.2c-0.3,0.2-0.5,0.4-0.7,0.7
				C274.2,82.7,274.1,83,274.1,83.3z M276.8,82.8c0,0.2,0,0.3-0.1,0.4c-0.1,0.1-0.2,0.2-0.3,0.3l0.7,1.1h-0.5l-0.6-1h-0.4v1h-0.4V82
				h0.7c0.3,0,0.5,0.1,0.7,0.2C276.7,82.3,276.8,82.5,276.8,82.8z M275.6,83.2h0.3c0.2,0,0.3,0,0.4-0.1c0.1-0.1,0.1-0.2,0.1-0.3
				c0-0.1,0-0.2-0.1-0.3c-0.1-0.1-0.2-0.1-0.4-0.1h-0.3V83.2z"/>
		</g>
	</g>
</g>
<g id="Layer_6">
	<g>
		<path class="st5" d="M189.1,82.8l-3.5,13c-0.2,0.8-0.5,1.5-1,2.2s-1,1.2-1.6,1.7c-0.6,0.5-1.3,0.8-2,1.1c-0.7,0.3-1.5,0.4-2.3,0.4
			h-19.2l4.9-18.4c0.1-0.3,0.3-0.6,0.5-0.8c0.3-0.2,0.6-0.3,0.9-0.3h2.6c0.3,0,0.6,0.1,0.7,0.4c0.2,0.2,0.2,0.5,0.2,0.8l-3.6,13.6
			h4.9l3.7-13.6c0.1-0.3,0.3-0.6,0.5-0.8c0.3-0.2,0.6-0.3,0.9-0.3h2.6c0.3,0,0.6,0.1,0.7,0.4c0.2,0.2,0.2,0.5,0.1,0.8l-3.6,13.6h3
			c0.6,0,1.1-0.2,1.6-0.5c0.5-0.3,0.8-0.8,0.9-1.4l3.1-11.7c0.1-0.3,0.3-0.6,0.5-0.8c0.3-0.2,0.6-0.3,0.9-0.3h2.6
			c0.3,0,0.6,0.1,0.7,0.4C189.1,82.3,189.1,82.5,189.1,82.8z"/>
		<path class="st5" d="M193.1,91.1c-0.2,0.2-0.3,0.4-0.4,0.6l-1.1,4.1c-0.1,0.2,0,0.4,0.1,0.6c0.1,0.2,0.3,0.3,0.6,0.3h10.1
			l-0.8,2.9c-0.1,0.4-0.4,0.8-0.7,1.1c-0.4,0.3-0.8,0.4-1.2,0.4h-9.2c-0.7,0-1.3-0.1-1.8-0.4c-0.6-0.3-1-0.7-1.4-1.1
			c-0.4-0.5-0.6-1-0.8-1.6c-0.1-0.6-0.1-1.2,0.1-1.9l1.5-5.5c0.2-0.6,0.4-1.2,0.8-1.7c0.3-0.5,0.7-0.9,1.2-1.3
			c0.5-0.4,1-0.6,1.6-0.8c0.6-0.2,1.2-0.3,1.8-0.3h6.5c0.7,0,1.3,0.1,1.8,0.4c0.6,0.3,1,0.7,1.4,1.1c0.4,0.5,0.6,1,0.7,1.6
			c0.1,0.6,0.1,1.2,0,1.9l-0.4,1.7c-0.2,0.7-0.6,1.3-1.2,1.8c-0.6,0.4-1.3,0.7-2,0.7h-7.4l0.5-1.8c0.1-0.4,0.3-0.8,0.7-1.1
			c0.4-0.3,0.8-0.4,1.2-0.4h3c0.3,0,0.5-0.1,0.5-0.4l0.1-0.4c0-0.2,0-0.3-0.1-0.5c-0.1-0.1-0.3-0.2-0.4-0.2h-4.5
			C193.5,90.9,193.3,90.9,193.1,91.1z"/>
		<path class="st5" d="M209.7,81.7c0.3,0,0.6,0.1,0.9,0.2c0.3,0.1,0.5,0.3,0.7,0.6c0.2,0.2,0.3,0.5,0.4,0.8c0.1,0.3,0.1,0.6,0,1
			l-3.2,12.2h4.1c0.6,0,1.1-0.2,1.6-0.5c0.5-0.4,0.8-0.8,0.9-1.4c0.1-0.4,0.1-0.8,0-1.2c-0.1-0.4-0.3-0.7-0.5-1
			c-0.2-0.3-0.5-0.5-0.9-0.7c-0.3-0.2-0.7-0.3-1.2-0.3h-0.2c-0.4,0-0.7-0.1-0.9-0.4c-0.2-0.3-0.3-0.6-0.2-1l0.9-3.4h0.5
			c1.2,0,2.3,0.3,3.3,0.8c1,0.5,1.8,1.2,2.4,2c0.6,0.8,1.1,1.8,1.3,2.9c0.2,1.1,0.2,2.2-0.1,3.3l-0.1,0.4c-0.2,0.8-0.5,1.5-1,2.2
			c-0.4,0.7-1,1.2-1.6,1.7c-0.6,0.5-1.3,0.8-2,1.1c-0.7,0.3-1.5,0.4-2.3,0.4h-7.8c-0.3,0-0.6-0.1-0.9-0.2c-0.3-0.1-0.5-0.3-0.7-0.6
			c-0.2-0.2-0.3-0.5-0.4-0.8c-0.1-0.3-0.1-0.6,0-1l4.5-16.9H209.7z"/>
		<path class="st5" d="M219.5,100l3.6-13.6h15.4c1.2,0,2.3,0.3,3.3,0.8c1,0.5,1.8,1.2,2.4,2c0.6,0.8,1.1,1.8,1.3,2.9
			c0.2,1.1,0.2,2.2-0.1,3.3l-1.2,4.6c-0.1,0.3-0.3,0.6-0.5,0.8c-0.3,0.2-0.6,0.3-0.9,0.3h-2.6c-0.3,0-0.6-0.1-0.7-0.4
			c-0.2-0.2-0.2-0.5-0.1-0.8l1.5-5.5c0.1-0.4,0.1-0.8,0-1.2c-0.1-0.4-0.2-0.7-0.5-1c-0.2-0.3-0.5-0.5-0.9-0.7
			c-0.4-0.2-0.7-0.3-1.2-0.3h-1.6l-2.4,8.8c-0.1,0.3-0.3,0.6-0.5,0.8c-0.3,0.2-0.6,0.3-0.9,0.3h-2.6c-0.3,0-0.6-0.1-0.7-0.4
			c-0.2-0.2-0.2-0.5-0.2-0.8l2.4-8.8h-4.9l-2.4,8.8c-0.1,0.3-0.3,0.6-0.5,0.8c-0.3,0.2-0.6,0.3-0.9,0.3h-2.6c-0.3,0-0.5-0.1-0.7-0.4
			C219.4,100.6,219.4,100.3,219.5,100z"/>
		<path class="st5" d="M258.6,91.5l0.1-0.3c0-0.1,0-0.2-0.1-0.3c-0.1-0.1-0.2-0.1-0.3-0.1h-7.9c-0.3,0-0.6-0.1-0.9-0.2
			c-0.3-0.1-0.5-0.3-0.7-0.6c-0.2-0.2-0.3-0.5-0.4-0.8c-0.1-0.3-0.1-0.6,0-1l0.5-1.9h10.7c0.7,0,1.3,0.1,1.8,0.4
			c0.6,0.3,1,0.7,1.4,1.1c0.4,0.5,0.6,1,0.8,1.6c0.1,0.6,0.1,1.2,0,1.9l-1.9,7.2c-0.2,0.7-0.6,1.3-1.2,1.8c-0.6,0.5-1.3,0.7-2,0.7
			l-7.9,0c-0.7,0-1.3-0.2-1.9-0.5c-0.6-0.3-1.1-0.7-1.4-1.2c-0.4-0.5-0.6-1.1-0.8-1.7c-0.1-0.6-0.1-1.3,0-2l0.1-0.4
			c0.1-0.5,0.3-0.9,0.6-1.3c0.3-0.4,0.6-0.7,0.9-1c0.4-0.3,0.8-0.5,1.2-0.6c0.4-0.2,0.9-0.2,1.4-0.2h6.7l-0.5,1.8
			c-0.1,0.4-0.4,0.8-0.7,1.1c-0.4,0.3-0.8,0.4-1.2,0.4h-3c-0.3,0-0.5,0.1-0.5,0.4c0,0.2,0,0.3,0.1,0.5c0.1,0.1,0.3,0.2,0.4,0.2h4.8
			c0.2,0,0.3,0,0.5-0.1c0.1-0.1,0.2-0.2,0.2-0.4l0-0.2L258.6,91.5z"/>
		<path class="st5" d="M262.1,101.1l3.1-11.7c0.1-0.4,0.3-0.8,0.5-1.2c0.3-0.4,0.5-0.7,0.9-1c0.3-0.3,0.7-0.5,1.1-0.6
			c0.4-0.1,0.9-0.2,1.3-0.2h1.9l-3.1,11.7c-0.1,0.4-0.3,0.8-0.5,1.2c-0.3,0.4-0.5,0.7-0.9,1c-0.3,0.3-0.7,0.5-1.1,0.6
			c-0.4,0.1-0.9,0.2-1.3,0.2H262.1z M266.7,84.2l0.4-1.4c0.1-0.3,0.3-0.6,0.5-0.8c0.3-0.2,0.6-0.3,0.9-0.3h2.6
			c0.3,0,0.5,0.1,0.7,0.4c0.2,0.2,0.2,0.5,0.2,0.8l-0.4,1.4c-0.1,0.3-0.3,0.6-0.5,0.8c-0.3,0.2-0.6,0.3-0.9,0.3h-2.6
			c-0.3,0-0.6-0.1-0.7-0.4C266.6,84.7,266.6,84.5,266.7,84.2z"/>
		<path class="st5" d="M268.2,101.1l4.9-18.4c0.1-0.3,0.3-0.6,0.5-0.8c0.3-0.2,0.6-0.3,0.9-0.3h2.6c0.3,0,0.6,0.1,0.7,0.4
			c0.2,0.2,0.2,0.5,0.2,0.8l-3.7,13.6c-0.2,0.7-0.5,1.4-0.9,1.9c-0.4,0.6-0.9,1.1-1.4,1.5c-0.5,0.4-1.1,0.7-1.8,1
			C269.7,101,269,101.1,268.2,101.1z"/>
	</g>
</g>
<g id="Layer_7" class="st2">
	<g class="st3">
		<g>
			<path class="st4" d="M222.2,81.9l-4.7,17.5c-0.3,1-0.7,2-1.3,2.9c-0.6,0.9-1.3,1.6-2.1,2.3c-0.8,0.6-1.7,1.1-2.7,1.5
				c-1,0.4-2.1,0.5-3.1,0.5h-25.9l6.6-24.8c0.1-0.4,0.3-0.8,0.7-1.1c0.4-0.3,0.8-0.4,1.2-0.4h3.5c0.4,0,0.7,0.2,1,0.5
				c0.3,0.3,0.3,0.7,0.2,1.1l-4.9,18.2h6.7l4.9-18.3c0.1-0.4,0.3-0.8,0.7-1.1c0.4-0.3,0.8-0.4,1.2-0.4h3.5c0.4,0,0.7,0.2,1,0.5
				c0.2,0.3,0.3,0.7,0.2,1.1l-4.9,18.2h4c0.8,0,1.5-0.2,2.1-0.7c0.6-0.5,1-1.1,1.2-1.9l4.2-15.8c0.1-0.4,0.3-0.8,0.7-1.1
				c0.4-0.3,0.8-0.4,1.2-0.4h3.5c0.4,0,0.7,0.2,1,0.5C222.2,81.1,222.3,81.5,222.2,81.9z"/>
			<path class="st4" d="M226.7,96.6l-2.3,8.4c-0.1,0.4-0.3,0.8-0.7,1.1c-0.4,0.3-0.8,0.4-1.2,0.4H219c-0.4,0-0.7-0.2-1-0.5
				s-0.3-0.7-0.2-1l6.2-23.2c0.1-0.4,0.3-0.8,0.7-1.1c0.4-0.3,0.8-0.4,1.2-0.4h5.1l-2.6,9.9h8.2l2.3-8.4c0.1-0.4,0.3-0.8,0.7-1.1
				c0.4-0.3,0.8-0.4,1.2-0.4h5.2l-6.7,24.8c-0.1,0.4-0.3,0.8-0.7,1.1c-0.4,0.3-0.8,0.4-1.2,0.4h-3.5c-0.4,0-0.7-0.2-1-0.5
				c-0.2-0.3-0.3-0.7-0.2-1l2.2-8.4H226.7z"/>
			<path class="st4" d="M241.3,105l6.6-24.7h20.7c1.6,0,3.1,0.3,4.4,1c1.3,0.7,2.4,1.6,3.3,2.7c0.9,1.1,1.5,2.4,1.8,3.9
				c0.3,1.5,0.3,3-0.1,4.5l-3.4,12.6c-0.1,0.4-0.3,0.8-0.7,1.1c-0.4,0.3-0.8,0.4-1.2,0.4h-3.5c-0.4,0-0.7-0.2-1-0.5
				c-0.3-0.3-0.3-0.7-0.2-1.1l3.6-13.3c0.2-0.6,0.2-1.2,0-1.8c-0.1-0.6-0.4-1.1-0.7-1.6c-0.4-0.5-0.8-0.8-1.3-1.1
				c-0.5-0.3-1.1-0.4-1.8-0.4h-1.5l-4.9,18.3c-0.1,0.4-0.3,0.8-0.7,1.1c-0.4,0.3-0.8,0.4-1.2,0.4h-3.5c-0.4,0-0.7-0.2-1-0.5
				c-0.2-0.3-0.3-0.7-0.2-1.1l4.9-18.2h-6.7l-4.9,18.3c-0.1,0.4-0.3,0.8-0.7,1.1c-0.4,0.3-0.8,0.4-1.2,0.4h-3.5
				c-0.4,0-0.7-0.2-1-0.5C241.2,105.7,241.1,105.4,241.3,105z"/>
		</g>
	</g>
</g>
</svg>
